<?xml version="1.0" encoding="utf-8"?>
<!-- Designed by Vexels.com - 2016 All Rights Reserved - https://vexels.com/terms-and-conditions/  -->

<svg version="1.1" id="Layer_1" xmlns="http://www.w3.org/2000/svg" xmlns:xlink="http://www.w3.org/1999/xlink" x="0px" y="0px"
	 width="1200px" height="1200px" viewBox="0 0 1200 1200" enable-background="new 0 0 1200 1200" xml:space="preserve">
<path fill="#575756" d="M1015.9,196.117H183.942C110.012,196.275,50,256.133,50,330.375v539.408
	c0,74.323,60.012,133.942,133.942,134.1H1015.9c74.007-0.158,134.1-60.016,134.1-134.1V330.375
	C1150,256.133,1089.907,196.117,1015.9,196.117z M985.615,299.223L606.168,568.767L249.885,299.223H985.615z M1015.9,900.777
	H183.942c-16.922,0-30.759-13.562-30.759-30.994V355.203l450.928,341.26l442.706-314.533v487.853
	C1046.817,887.215,1033.058,900.777,1015.9,900.777z"/>
</svg>
